<mxfile host="app.diagrams.net" modified="2020-11-12T00:31:45.411Z" agent="5.0 (Windows NT 10.0; Win64; x64) AppleWebKit/537.36 (KHTML, like Gecko) Chrome/86.0.4240.111 Safari/537.36" etag="-bkYT3NplR_Xi5XFAkg9" version="13.9.6" type="github">
  <diagram name="Page-1" id="b520641d-4fe3-3701-9064-5fc419738815">
    <mxGraphModel dx="2321" dy="645" grid="1" gridSize="10" guides="1" tooltips="1" connect="1" arrows="1" fold="1" page="1" pageScale="1" pageWidth="1100" pageHeight="850" background="#ffffff" math="0" shadow="0">
      <root>
        <mxCell id="0" />
        <mxCell id="1" parent="0" />
        <mxCell id="e9B-Smu1X89H_BTClJb--25" style="edgeStyle=orthogonalEdgeStyle;rounded=0;orthogonalLoop=1;jettySize=auto;html=1;" edge="1" parent="1" source="e9B-Smu1X89H_BTClJb--18" target="e9B-Smu1X89H_BTClJb--22">
          <mxGeometry relative="1" as="geometry" />
        </mxCell>
        <mxCell id="e9B-Smu1X89H_BTClJb--29" style="edgeStyle=orthogonalEdgeStyle;rounded=0;orthogonalLoop=1;jettySize=auto;html=1;" edge="1" parent="1" source="e9B-Smu1X89H_BTClJb--18" target="e9B-Smu1X89H_BTClJb--26">
          <mxGeometry relative="1" as="geometry" />
        </mxCell>
        <mxCell id="e9B-Smu1X89H_BTClJb--18" value="m0" style="swimlane;html=1;fontStyle=0;childLayout=stackLayout;horizontal=1;startSize=26;fillColor=#e0e0e0;horizontalStack=0;resizeParent=1;resizeLast=0;collapsible=1;marginBottom=0;swimlaneFillColor=#ffffff;align=center;rounded=1;shadow=0;comic=0;labelBackgroundColor=none;strokeWidth=1;fontFamily=Verdana;fontSize=12" parent="1" vertex="1">
          <mxGeometry x="130" y="30" width="620" height="310" as="geometry">
            <mxRectangle x="130" y="30" width="50" height="26" as="alternateBounds" />
          </mxGeometry>
        </mxCell>
        <mxCell id="e9B-Smu1X89H_BTClJb--19" value="&quot;Good morning, %name%. The time is 8:30 AM. You have 5 appointments today, starting with...&quot; The voice of your virtual assistant fades away &#xa;&#xa;We are an employee at some kind of internet advertisement agency.our boss invites us into her office at the beginning of the day to discuss what appears to be important mattersboss then proceeds to explain her plan:&#xa;As always, the company wants her to develop better ways to target ads to consumer audience.She’s been working on a revolutionary new algorithm that’ll give far more personalized results.However, this requires extensive testing, including her using personal data instead of aggregate data - an obvious consumer privacy breachEmployee must then decide whether to join her or decline" style="text;strokeColor=none;fillColor=none;spacingLeft=4;spacingRight=4;overflow=hidden;rotatable=0;points=[[0,0.5],[1,0.5]];portConstraint=eastwest;whiteSpace=wrap;verticalAlign=top;" parent="e9B-Smu1X89H_BTClJb--18" vertex="1">
          <mxGeometry y="26" width="620" height="134" as="geometry" />
        </mxCell>
        <mxCell id="e9B-Smu1X89H_BTClJb--21" value="1. Accept her offer&#xa;2. Politely decline" style="text;strokeColor=none;fillColor=none;spacingLeft=4;spacingRight=4;whiteSpace=wrap;overflow=hidden;rotatable=0;points=[[0,0.5],[1,0.5]];portConstraint=eastwest;" parent="e9B-Smu1X89H_BTClJb--18" vertex="1">
          <mxGeometry y="160" width="620" height="50" as="geometry" />
        </mxCell>
        <mxCell id="ORPxbONJtoW9aJd18paX-1" value="Sx" style="swimlane;html=1;fontStyle=0;childLayout=stackLayout;horizontal=1;startSize=26;fillColor=#e0e0e0;horizontalStack=0;resizeParent=1;resizeLast=0;collapsible=1;marginBottom=0;swimlaneFillColor=#ffffff;align=center;rounded=1;shadow=0;comic=0;labelBackgroundColor=none;strokeWidth=1;fontFamily=Verdana;fontSize=12" parent="1" vertex="1">
          <mxGeometry x="910" y="290" width="620" height="240" as="geometry">
            <mxRectangle x="510" y="180" width="50" height="26" as="alternateBounds" />
          </mxGeometry>
        </mxCell>
        <mxCell id="ORPxbONJtoW9aJd18paX-2" value="Your suspicions were correct - not only has your boss has been embezzling funds, she has been bribing officials. &#xa;Now that you know the truth, it&#39;s time to decide what to do. Your boss has always been extremely supportive of you and you&#39;re sure that there&#39;s a reasonable explanation for this. Besides, it&#39;s not like she&#39;s hurting&#xa; anyone you know or the company.&#xa;On the other hand, she&#39;s a criminal and these records prove it. Do you really want to be associated with a criminal?" style="text;strokeColor=none;fillColor=none;spacingLeft=4;spacingRight=4;overflow=hidden;rotatable=0;points=[[0,0.5],[1,0.5]];portConstraint=eastwest;whiteSpace=wrap;verticalAlign=top;" parent="ORPxbONJtoW9aJd18paX-1" vertex="1">
          <mxGeometry y="26" width="620" height="124" as="geometry" />
        </mxCell>
        <mxCell id="ORPxbONJtoW9aJd18paX-3" value="1. Report your findings&#xa;2. Trash your findings&#xa;3. Confront your boss&#xa;" style="text;strokeColor=none;fillColor=none;spacingLeft=4;spacingRight=4;whiteSpace=wrap;overflow=hidden;rotatable=0;points=[[0,0.5],[1,0.5]];portConstraint=eastwest;" parent="ORPxbONJtoW9aJd18paX-1" vertex="1">
          <mxGeometry y="150" width="620" height="90" as="geometry" />
        </mxCell>
        <mxCell id="e9B-Smu1X89H_BTClJb--33" style="edgeStyle=orthogonalEdgeStyle;rounded=0;orthogonalLoop=1;jettySize=auto;html=1;" edge="1" parent="1" source="e9B-Smu1X89H_BTClJb--22" target="e9B-Smu1X89H_BTClJb--30">
          <mxGeometry relative="1" as="geometry" />
        </mxCell>
        <mxCell id="e9B-Smu1X89H_BTClJb--22" value="m1" style="swimlane;html=1;fontStyle=0;childLayout=stackLayout;horizontal=1;startSize=26;fillColor=#e0e0e0;horizontalStack=0;resizeParent=1;resizeLast=0;collapsible=1;marginBottom=0;swimlaneFillColor=#ffffff;align=center;rounded=1;shadow=0;comic=0;labelBackgroundColor=none;strokeWidth=1;fontFamily=Verdana;fontSize=12" vertex="1" parent="1">
          <mxGeometry x="-320" y="440" width="620" height="310" as="geometry">
            <mxRectangle x="510" y="180" width="50" height="26" as="alternateBounds" />
          </mxGeometry>
        </mxCell>
        <mxCell id="e9B-Smu1X89H_BTClJb--23" value="Boss tells you great, tells you that she’ll tell you more tomorrow, but for now, go back to work. Back home, you decide to go to bed early. You think about what the boss told you today, but still feel a bit uncertain about joining it. You decide to think about how to approach this project.&#xa;Expand on benefits of going all in (promotions for you, no harm to consumer, good for the company, could get you fame since you are developing a revolutionary algorithm), don&#39;t betray the boss&#39;s trust in you&#xa;You&#39;re concerned about seeing personal data, however. You could try to change the boss&#39;s approach to this project to use less personal data, but that might prevent the algorithm from ever being developed to its full potential." style="text;strokeColor=none;fillColor=none;spacingLeft=4;spacingRight=4;overflow=hidden;rotatable=0;points=[[0,0.5],[1,0.5]];portConstraint=eastwest;whiteSpace=wrap;verticalAlign=top;" vertex="1" parent="e9B-Smu1X89H_BTClJb--22">
          <mxGeometry y="26" width="620" height="124" as="geometry" />
        </mxCell>
        <mxCell id="e9B-Smu1X89H_BTClJb--24" value="1. Decide that the benefits of using consumer data outweighs it&#39;s privacy violations. [Egoist]&#xa;2. Try to change the development approach." style="text;strokeColor=none;fillColor=none;spacingLeft=4;spacingRight=4;whiteSpace=wrap;overflow=hidden;rotatable=0;points=[[0,0.5],[1,0.5]];portConstraint=eastwest;" vertex="1" parent="e9B-Smu1X89H_BTClJb--22">
          <mxGeometry y="150" width="620" height="50" as="geometry" />
        </mxCell>
        <mxCell id="e9B-Smu1X89H_BTClJb--26" value="Sx" style="swimlane;html=1;fontStyle=0;childLayout=stackLayout;horizontal=1;startSize=26;fillColor=#e0e0e0;horizontalStack=0;resizeParent=1;resizeLast=0;collapsible=1;marginBottom=0;swimlaneFillColor=#ffffff;align=center;rounded=1;shadow=0;comic=0;labelBackgroundColor=none;strokeWidth=1;fontFamily=Verdana;fontSize=12" vertex="1" parent="1">
          <mxGeometry x="580" y="440" width="620" height="310" as="geometry">
            <mxRectangle x="510" y="180" width="50" height="26" as="alternateBounds" />
          </mxGeometry>
        </mxCell>
        <mxCell id="e9B-Smu1X89H_BTClJb--27" value="text" style="text;strokeColor=none;fillColor=none;spacingLeft=4;spacingRight=4;overflow=hidden;rotatable=0;points=[[0,0.5],[1,0.5]];portConstraint=eastwest;whiteSpace=wrap;verticalAlign=top;" vertex="1" parent="e9B-Smu1X89H_BTClJb--26">
          <mxGeometry y="26" width="620" height="124" as="geometry" />
        </mxCell>
        <mxCell id="e9B-Smu1X89H_BTClJb--28" value="Row 3" style="text;strokeColor=none;fillColor=none;spacingLeft=4;spacingRight=4;whiteSpace=wrap;overflow=hidden;rotatable=0;points=[[0,0.5],[1,0.5]];portConstraint=eastwest;" vertex="1" parent="e9B-Smu1X89H_BTClJb--26">
          <mxGeometry y="150" width="620" height="26" as="geometry" />
        </mxCell>
        <mxCell id="e9B-Smu1X89H_BTClJb--30" value="m2" style="swimlane;html=1;fontStyle=0;childLayout=stackLayout;horizontal=1;startSize=26;fillColor=#e0e0e0;horizontalStack=0;resizeParent=1;resizeLast=0;collapsible=1;marginBottom=0;swimlaneFillColor=#ffffff;align=center;rounded=1;shadow=0;comic=0;labelBackgroundColor=none;strokeWidth=1;fontFamily=Verdana;fontSize=12" vertex="1" parent="1">
          <mxGeometry x="-840" y="830" width="620" height="310" as="geometry">
            <mxRectangle x="510" y="180" width="50" height="26" as="alternateBounds" />
          </mxGeometry>
        </mxCell>
        <mxCell id="e9B-Smu1X89H_BTClJb--31" value="The next day, you now meet with a small team that your boss has assembled. It turns out that this team has been secretly run by the company for years, and is an ongoing development project to harvest data. &#xa;The team consists of five people. They all look quite intimidating, and certainly more important than you. They do give off stuffy old guy vibes, though.&#xa;&#xa;They&#39;ve noticed your talents and wish to bring you onto the team to bring it to heights it could never reach before. They first decide to show you the existing ideas for their algorithm as a starting point.&#xa;&#xa;" style="text;strokeColor=none;fillColor=none;spacingLeft=4;spacingRight=4;overflow=hidden;rotatable=0;points=[[0,0.5],[1,0.5]];portConstraint=eastwest;whiteSpace=wrap;verticalAlign=top;" vertex="1" parent="e9B-Smu1X89H_BTClJb--30">
          <mxGeometry y="26" width="620" height="124" as="geometry" />
        </mxCell>
        <mxCell id="e9B-Smu1X89H_BTClJb--32" value="1. Suggest that the algorithm be upgraded even further by looking even deeper into personal customer data&#xa;2. Agree that the team&#39;s ideas for the algorithm are sufficient and decide to go along with it (potential merge with &quot;try to change development approach&quot; previous choice" style="text;strokeColor=none;fillColor=none;spacingLeft=4;spacingRight=4;whiteSpace=wrap;overflow=hidden;rotatable=0;points=[[0,0.5],[1,0.5]];portConstraint=eastwest;" vertex="1" parent="e9B-Smu1X89H_BTClJb--30">
          <mxGeometry y="150" width="620" height="160" as="geometry" />
        </mxCell>
        <mxCell id="V5t-5OzrnSoj0Fzdp6cP-4" value="" style="endArrow=classic;startArrow=classic;html=1;exitX=0.5;exitY=0;exitDx=0;exitDy=0;" edge="1" parent="1">
          <mxGeometry width="50" height="50" relative="1" as="geometry">
            <mxPoint x="-770" y="1230" as="sourcePoint" />
            <mxPoint x="-550" y="1140" as="targetPoint" />
          </mxGeometry>
        </mxCell>
        <mxCell id="V5t-5OzrnSoj0Fzdp6cP-7" value="m3" style="swimlane;html=1;fontStyle=0;childLayout=stackLayout;horizontal=1;startSize=26;fillColor=#e0e0e0;horizontalStack=0;resizeParent=1;resizeLast=0;collapsible=1;marginBottom=0;swimlaneFillColor=#ffffff;align=center;rounded=1;shadow=0;comic=0;labelBackgroundColor=none;strokeWidth=1;fontFamily=Verdana;fontSize=12" vertex="1" parent="1">
          <mxGeometry x="-1080" y="1240" width="620" height="490" as="geometry">
            <mxRectangle x="510" y="180" width="50" height="26" as="alternateBounds" />
          </mxGeometry>
        </mxCell>
        <mxCell id="V5t-5OzrnSoj0Fzdp6cP-8" value="Everyone on the team is excited by your newfound discoveries. Enthusiastically, the motion to move forward with this enhanced algorithm carries through. One member of the team, a middle-aged man, seems mildly displeased throughout all of it.&#xa;&#xa;3 weeks pass&#xa;&#xa;Progress is continuing extremely well. Thanks to your helpful suggestions, the efficiency of the working algorithm has nearly doubled, and the team couldn&#39;t be happier with your progress. However, your team soon calls a meeting to discuss a recent email. Apparently, your boss received an inquiry from a local news source asking about the potential illegal data harvesting that is present in the algorithm. Everyone is surprised - the one suspicious person on your team seems to have developed a nervous twitch, however.&#xa;&#xa;After the meeting, you report your suspicious claims to your boss. Your boss takes your suggestions under advisement and highly recommends that you test the algorithm one more time - this time, perhaps on your fellow employee. After all, that may make this problem go away." style="text;strokeColor=none;fillColor=none;spacingLeft=4;spacingRight=4;overflow=hidden;rotatable=0;points=[[0,0.5],[1,0.5]];portConstraint=eastwest;whiteSpace=wrap;verticalAlign=top;" vertex="1" parent="V5t-5OzrnSoj0Fzdp6cP-7">
          <mxGeometry y="26" width="620" height="244" as="geometry" />
        </mxCell>
        <mxCell id="V5t-5OzrnSoj0Fzdp6cP-9" value="1. Take your boss&#39;s secret meaning, blackmail the sus guy, the algorithm succeeds, you and the company get filthy rich. But you know what you did.&#xa;2. Decide that it&#39;s not worth it to do him dirty like that. A week later, your team and company are exposed for their evil deeds. You get major jail time." style="text;strokeColor=none;fillColor=none;spacingLeft=4;spacingRight=4;whiteSpace=wrap;overflow=hidden;rotatable=0;points=[[0,0.5],[1,0.5]];portConstraint=eastwest;" vertex="1" parent="V5t-5OzrnSoj0Fzdp6cP-7">
          <mxGeometry y="270" width="620" height="170" as="geometry" />
        </mxCell>
      </root>
    </mxGraphModel>
  </diagram>
</mxfile>
